<svg width="50" height="58" viewBox="0 0 50 58" fill="none" xmlns="http://www.w3.org/2000/svg">
<path fill-rule="evenodd" clip-rule="evenodd" d="M2.55835 4.91526C3.71078 4.91526 4.64501 3.81494 4.64501 2.45763C4.64501 1.10032 3.71078 0 2.55835 0C1.40591 0 0.47168 1.10032 0.47168 2.45763C0.47168 3.81494 1.40591 4.91526 2.55835 4.91526Z" fill="#0C1A30" fill-opacity="0.05"/>
<path fill-rule="evenodd" clip-rule="evenodd" d="M13.8264 4.91526C14.9788 4.91526 15.9131 3.81494 15.9131 2.45763C15.9131 1.10032 14.9788 0 13.8264 0C12.674 0 11.7397 1.10032 11.7397 2.45763C11.7397 3.81494 12.674 4.91526 13.8264 4.91526Z" fill="#0C1A30" fill-opacity="0.05"/>
<path fill-rule="evenodd" clip-rule="evenodd" d="M25.5115 4.91526C26.6639 4.91526 27.5981 3.81494 27.5981 2.45763C27.5981 1.10032 26.6639 0 25.5115 0C24.359 0 23.4248 1.10032 23.4248 2.45763C23.4248 3.81494 24.359 4.91526 25.5115 4.91526Z" fill="#0C1A30" fill-opacity="0.05"/>
<path fill-rule="evenodd" clip-rule="evenodd" d="M2.55835 18.1865C3.71078 18.1865 4.64501 17.0862 4.64501 15.7289C4.64501 14.3716 3.71078 13.2712 2.55835 13.2712C1.40591 13.2712 0.47168 14.3716 0.47168 15.7289C0.47168 17.0862 1.40591 18.1865 2.55835 18.1865Z" fill="#0C1A30" fill-opacity="0.05"/>
<path fill-rule="evenodd" clip-rule="evenodd" d="M13.8264 18.1865C14.9788 18.1865 15.9131 17.0862 15.9131 15.7289C15.9131 14.3716 14.9788 13.2712 13.8264 13.2712C12.674 13.2712 11.7397 14.3716 11.7397 15.7289C11.7397 17.0862 12.674 18.1865 13.8264 18.1865Z" fill="#0C1A30" fill-opacity="0.05"/>
<path fill-rule="evenodd" clip-rule="evenodd" d="M25.5115 18.1865C26.6639 18.1865 27.5981 17.0862 27.5981 15.7289C27.5981 14.3716 26.6639 13.2712 25.5115 13.2712C24.359 13.2712 23.4248 14.3716 23.4248 15.7289C23.4248 17.0862 24.359 18.1865 25.5115 18.1865Z" fill="#0C1A30" fill-opacity="0.05"/>
<path fill-rule="evenodd" clip-rule="evenodd" d="M2.55835 31.9491C3.71078 31.9491 4.64501 30.8488 4.64501 29.4914C4.64501 28.1341 3.71078 27.0338 2.55835 27.0338C1.40591 27.0338 0.47168 28.1341 0.47168 29.4914C0.47168 30.8488 1.40591 31.9491 2.55835 31.9491Z" fill="#0C1A30" fill-opacity="0.05"/>
<path fill-rule="evenodd" clip-rule="evenodd" d="M13.8264 31.9491C14.9788 31.9491 15.9131 30.8488 15.9131 29.4914C15.9131 28.1341 14.9788 27.0338 13.8264 27.0338C12.674 27.0338 11.7397 28.1341 11.7397 29.4914C11.7397 30.8488 12.674 31.9491 13.8264 31.9491Z" fill="#0C1A30" fill-opacity="0.05"/>
<path fill-rule="evenodd" clip-rule="evenodd" d="M25.5115 31.9491C26.6639 31.9491 27.5981 30.8488 27.5981 29.4914C27.5981 28.1341 26.6639 27.0338 25.5115 27.0338C24.359 27.0338 23.4248 28.1341 23.4248 29.4914C23.4248 30.8488 24.359 31.9491 25.5115 31.9491Z" fill="#0C1A30" fill-opacity="0.05"/>
<path fill-rule="evenodd" clip-rule="evenodd" d="M2.55835 44.7289C3.71078 44.7289 4.64501 43.6285 4.64501 42.2712C4.64501 40.9139 3.71078 39.8136 2.55835 39.8136C1.40591 39.8136 0.47168 40.9139 0.47168 42.2712C0.47168 43.6285 1.40591 44.7289 2.55835 44.7289Z" fill="#0C1A30" fill-opacity="0.05"/>
<path fill-rule="evenodd" clip-rule="evenodd" d="M13.8264 44.7289C14.9788 44.7289 15.9131 43.6285 15.9131 42.2712C15.9131 40.9139 14.9788 39.8136 13.8264 39.8136C12.674 39.8136 11.7397 40.9139 11.7397 42.2712C11.7397 43.6285 12.674 44.7289 13.8264 44.7289Z" fill="#0C1A30" fill-opacity="0.05"/>
<path fill-rule="evenodd" clip-rule="evenodd" d="M25.5115 44.7289C26.6639 44.7289 27.5981 43.6285 27.5981 42.2712C27.5981 40.9139 26.6639 39.8136 25.5115 39.8136C24.359 39.8136 23.4248 40.9139 23.4248 42.2712C23.4248 43.6285 24.359 44.7289 25.5115 44.7289Z" fill="#0C1A30" fill-opacity="0.05"/>
<path fill-rule="evenodd" clip-rule="evenodd" d="M2.55835 58C3.71078 58 4.64501 56.8997 4.64501 55.5423C4.64501 54.185 3.71078 53.0847 2.55835 53.0847C1.40591 53.0847 0.47168 54.185 0.47168 55.5423C0.47168 56.8997 1.40591 58 2.55835 58Z" fill="#0C1A30" fill-opacity="0.05"/>
<path fill-rule="evenodd" clip-rule="evenodd" d="M13.8264 58C14.9788 58 15.9131 56.8997 15.9131 55.5423C15.9131 54.185 14.9788 53.0847 13.8264 53.0847C12.674 53.0847 11.7397 54.185 11.7397 55.5423C11.7397 56.8997 12.674 58 13.8264 58Z" fill="#0C1A30" fill-opacity="0.05"/>
<path fill-rule="evenodd" clip-rule="evenodd" d="M25.5115 58C26.6639 58 27.5981 56.8997 27.5981 55.5423C27.5981 54.185 26.6639 53.0847 25.5115 53.0847C24.359 53.0847 23.4248 54.185 23.4248 55.5423C23.4248 56.8997 24.359 58 25.5115 58Z" fill="#0C1A30" fill-opacity="0.05"/>
<path fill-rule="evenodd" clip-rule="evenodd" d="M36.3625 4.91526C37.515 4.91526 38.4492 3.81494 38.4492 2.45763C38.4492 1.10032 37.515 0 36.3625 0C35.2101 0 34.2759 1.10032 34.2759 2.45763C34.2759 3.81494 35.2101 4.91526 36.3625 4.91526Z" fill="#0C1A30" fill-opacity="0.05"/>
<path fill-rule="evenodd" clip-rule="evenodd" d="M36.3625 18.1865C37.515 18.1865 38.4492 17.0862 38.4492 15.7289C38.4492 14.3716 37.515 13.2712 36.3625 13.2712C35.2101 13.2712 34.2759 14.3716 34.2759 15.7289C34.2759 17.0862 35.2101 18.1865 36.3625 18.1865Z" fill="#0C1A30" fill-opacity="0.05"/>
<path fill-rule="evenodd" clip-rule="evenodd" d="M36.3625 31.9491C37.515 31.9491 38.4492 30.8488 38.4492 29.4914C38.4492 28.1341 37.515 27.0338 36.3625 27.0338C35.2101 27.0338 34.2759 28.1341 34.2759 29.4914C34.2759 30.8488 35.2101 31.9491 36.3625 31.9491Z" fill="#0C1A30" fill-opacity="0.05"/>
<path fill-rule="evenodd" clip-rule="evenodd" d="M36.3625 44.7289C37.515 44.7289 38.4492 43.6285 38.4492 42.2712C38.4492 40.9139 37.515 39.8136 36.3625 39.8136C35.2101 39.8136 34.2759 40.9139 34.2759 42.2712C34.2759 43.6285 35.2101 44.7289 36.3625 44.7289Z" fill="#0C1A30" fill-opacity="0.05"/>
<path fill-rule="evenodd" clip-rule="evenodd" d="M36.3625 58C37.515 58 38.4492 56.8997 38.4492 55.5423C38.4492 54.185 37.515 53.0847 36.3625 53.0847C35.2101 53.0847 34.2759 54.185 34.2759 55.5423C34.2759 56.8997 35.2101 58 36.3625 58Z" fill="#0C1A30" fill-opacity="0.05"/>
<path fill-rule="evenodd" clip-rule="evenodd" d="M47.6301 4.91526C48.7826 4.91526 49.7168 3.81494 49.7168 2.45763C49.7168 1.10032 48.7826 0 47.6301 0C46.4777 0 45.5435 1.10032 45.5435 2.45763C45.5435 3.81494 46.4777 4.91526 47.6301 4.91526Z" fill="#0C1A30" fill-opacity="0.05"/>
<path fill-rule="evenodd" clip-rule="evenodd" d="M47.6301 18.1865C48.7826 18.1865 49.7168 17.0862 49.7168 15.7289C49.7168 14.3716 48.7826 13.2712 47.6301 13.2712C46.4777 13.2712 45.5435 14.3716 45.5435 15.7289C45.5435 17.0862 46.4777 18.1865 47.6301 18.1865Z" fill="#0C1A30" fill-opacity="0.05"/>
<path fill-rule="evenodd" clip-rule="evenodd" d="M47.6301 31.9491C48.7826 31.9491 49.7168 30.8488 49.7168 29.4914C49.7168 28.1341 48.7826 27.0338 47.6301 27.0338C46.4777 27.0338 45.5435 28.1341 45.5435 29.4914C45.5435 30.8488 46.4777 31.9491 47.6301 31.9491Z" fill="#0C1A30" fill-opacity="0.05"/>
<path fill-rule="evenodd" clip-rule="evenodd" d="M47.6301 44.7289C48.7826 44.7289 49.7168 43.6285 49.7168 42.2712C49.7168 40.9139 48.7826 39.8136 47.6301 39.8136C46.4777 39.8136 45.5435 40.9139 45.5435 42.2712C45.5435 43.6285 46.4777 44.7289 47.6301 44.7289Z" fill="#0C1A30" fill-opacity="0.05"/>
<path fill-rule="evenodd" clip-rule="evenodd" d="M47.6301 58C48.7826 58 49.7168 56.8997 49.7168 55.5423C49.7168 54.185 48.7826 53.0847 47.6301 53.0847C46.4777 53.0847 45.5435 54.185 45.5435 55.5423C45.5435 56.8997 46.4777 58 47.6301 58Z" fill="#0C1A30" fill-opacity="0.05"/>
</svg>
