<svg width="20" height="20" viewBox="0 0 20 20" fill="none" xmlns="http://www.w3.org/2000/svg">
<path fill-rule="evenodd" clip-rule="evenodd" d="M9.77346 18.2613C9.86574 18.3096 9.96893 18.3341 10.0721 18.3333C10.1753 18.3324 10.2777 18.3071 10.3708 18.2581L13.344 16.6687C14.1872 16.2192 14.8474 15.7167 15.3625 15.1316C16.4825 13.8568 17.0941 12.2298 17.0832 10.5522L17.048 5.01828C17.0446 4.38089 16.626 3.81213 16.0068 3.60539L10.4757 1.7496C10.1426 1.63683 9.77765 1.63928 9.45046 1.75532L3.94025 3.6773C3.32446 3.89222 2.91338 4.46505 2.91673 5.10326L2.95197 10.6331C2.96287 12.3132 3.59544 13.9328 4.73389 15.1945C5.25404 15.7714 5.92017 16.2666 6.77254 16.7087L9.77346 18.2613ZM8.98635 11.7574C9.11052 11.8767 9.27159 11.9355 9.43267 11.9339C9.59375 11.9331 9.75399 11.8726 9.87648 11.7517L13.1257 8.54837C13.3699 8.30731 13.3673 7.91997 13.1207 7.68217C12.8732 7.44437 12.4747 7.44601 12.2306 7.68707L9.42344 10.454L8.27408 9.3492C8.02659 9.1114 7.62893 9.11385 7.38396 9.35492C7.13983 9.59598 7.14234 9.98332 7.38983 10.2211L8.98635 11.7574Z" fill="#3669C9"/>
</svg>
