<svg width="24" height="24" viewBox="0 0 24 24" fill="none" xmlns="http://www.w3.org/2000/svg">
<path d="M19.776 5.37499C17.9911 4.19888 15.89 3.59502 13.753 3.64399C8.333 3.64399 2.5 7.02599 2.5 14.452V16.452C2.5 20.222 5.305 21.979 7.2 21.979C8.26106 21.9226 9.28105 21.5503 10.129 20.91C10.814 20.3825 11.638 20.0663 12.5 20C12.758 20 13.1 20.032 13.5 20.069C15.311 20.236 18.341 20.513 20.4 18.636C21.8 17.363 22.5 15.298 22.5 12.5V10.5C22.5094 9.48633 22.2651 8.48641 21.7894 7.59128C21.3136 6.69616 20.6215 5.93427 19.776 5.37499V5.37499ZM13.753 4.64399C17.484 4.64399 21.5 6.47699 21.5 10.5C21.5 13.005 20.9 14.821 19.723 15.9C17.992 17.481 15.344 17.237 13.589 17.076C13.154 17.036 12.782 17.003 12.5 17.003C11.4494 17.061 10.4399 17.4303 9.6 18.064C8.90657 18.5974 8.07237 18.9164 7.2 18.982C5.708 18.982 3.5 17.543 3.5 14.455C3.5 7.713 8.815 4.64399 13.753 4.64399ZM19.723 17.9C17.992 19.481 15.344 19.237 13.589 19.076C13.154 19.036 12.782 19.003 12.5 19.003C11.4494 19.061 10.4399 19.4303 9.6 20.064C8.90657 20.5974 8.07237 20.9164 7.2 20.982C6.43174 20.9207 5.69927 20.6314 5.0964 20.1513C4.49353 19.6712 4.04769 19.022 3.816 18.287C4.23035 18.7906 4.74546 19.2021 5.32824 19.4948C5.91102 19.7876 6.54859 19.9552 7.2 19.987C8.26106 19.9306 9.28105 19.5583 10.129 18.918C10.8131 18.3877 11.6371 18.0686 12.5 18C12.758 18 13.1 18.032 13.5 18.069C15.311 18.236 18.341 18.513 20.4 16.636C20.5882 16.4632 20.7631 16.2763 20.923 16.077C20.6687 16.769 20.258 17.3928 19.723 17.9V17.9Z" fill="#9B81E5"/>
<path d="M7.19984 17.979C7.84712 17.9016 8.46003 17.6453 8.96984 17.239C9.99721 16.4844 11.2262 16.053 12.4998 16C12.8118 16 13.2218 16.034 13.7178 16.08C14.2798 16.131 14.9178 16.189 15.5788 16.189C16.7243 16.2762 17.8647 15.9638 18.8058 15.305C19.8558 14.446 20.3888 12.83 20.3888 10.505C20.3888 7.16905 16.9488 5.64905 13.7528 5.64905C13.1608 5.65351 12.5701 5.70702 11.9868 5.80905H11.9678C8.65884 6.37905 4.61084 8.61605 4.61084 14.454C4.61084 17.091 6.38884 17.979 7.19984 17.979ZM8.44084 8.32205C8.05184 9.37705 7.54984 10.753 7.35484 11.343C7.33205 11.4059 7.32209 11.4727 7.32556 11.5394C7.32903 11.6062 7.34585 11.6716 7.37503 11.7317C7.40421 11.7919 7.44516 11.8456 7.49545 11.8896C7.54574 11.9337 7.60436 11.9672 7.66783 11.9882C7.7313 12.0092 7.79833 12.0172 7.86497 12.0119C7.93161 12.0065 7.9965 11.9879 8.05579 11.957C8.11509 11.9261 8.1676 11.8837 8.2102 11.8321C8.25281 11.7806 8.28465 11.7211 8.30384 11.657C8.58184 10.815 9.53684 8.24005 9.80384 7.51005C10.2632 7.2977 10.7395 7.1241 11.2278 6.99105L10.0278 10.331C9.98312 10.4556 9.98958 10.5928 10.0458 10.7125C10.102 10.8323 10.2035 10.9249 10.3278 10.97C10.3829 10.9905 10.4412 11.0007 10.4998 11C10.6027 10.9999 10.7031 10.9681 10.7872 10.9088C10.8713 10.8496 10.9351 10.7659 10.9698 10.669L12.3808 6.75305C12.8349 6.68288 13.2934 6.64644 13.7528 6.64405C16.4668 6.64405 19.3888 7.85105 19.3888 10.5C19.3888 12.515 18.9798 13.871 18.1728 14.53C17.4077 15.0371 16.4932 15.2694 15.5788 15.189C14.9618 15.189 14.3498 15.133 13.7928 15.083C13.2768 15.035 12.8348 15 12.4998 15C11.0388 15.0497 9.62563 15.5336 8.44084 16.39C8.07757 16.6786 7.65305 16.88 7.19984 16.979C7.18384 16.979 5.61084 16.779 5.61084 14.452C5.54432 13.2766 5.76761 12.1029 6.26107 11.034C6.75454 9.9651 7.50307 9.03382 8.44084 8.32205V8.32205Z" fill="#9B81E5"/>
<path d="M16 13C16.3956 13 16.7822 12.8827 17.1111 12.6629C17.44 12.4432 17.6964 12.1308 17.8478 11.7654C17.9991 11.3999 18.0387 10.9978 17.9616 10.6098C17.8844 10.2219 17.6939 9.86549 17.4142 9.58579C17.1345 9.30608 16.7781 9.1156 16.3902 9.03843C16.0022 8.96126 15.6001 9.00087 15.2346 9.15224C14.8692 9.30362 14.5568 9.55996 14.3371 9.88886C14.1173 10.2178 14 10.6044 14 11C14 11.5304 14.2107 12.0391 14.5858 12.4142C14.9609 12.7893 15.4696 13 16 13ZM16 10C16.1978 10 16.3911 10.0587 16.5556 10.1685C16.72 10.2784 16.8482 10.4346 16.9239 10.6173C16.9996 10.8 17.0194 11.0011 16.9808 11.1951C16.9422 11.3891 16.847 11.5673 16.7071 11.7071C16.5673 11.847 16.3891 11.9422 16.1951 11.9808C16.0011 12.0194 15.8 11.9996 15.6173 11.9239C15.4346 11.8482 15.2784 11.72 15.1685 11.5556C15.0586 11.3911 15 11.1978 15 11C15 10.7348 15.1054 10.4804 15.2929 10.2929C15.4804 10.1054 15.7348 10 16 10V10Z" fill="#9B81E5"/>
</svg>
