<svg width="14" height="14" viewBox="0 0 14 14" fill="none" xmlns="http://www.w3.org/2000/svg">
<path fill-rule="evenodd" clip-rule="evenodd" d="M7.00016 2.33333C7.64449 2.33333 8.16683 1.811 8.16683 1.16667C8.16683 0.522334 7.64449 0 7.00016 0C6.35583 0 5.8335 0.522334 5.8335 1.16667C5.8335 1.811 6.35583 2.33333 7.00016 2.33333ZM7.00016 8.16667C7.64449 8.16667 8.16683 7.64433 8.16683 7C8.16683 6.35567 7.64449 5.83333 7.00016 5.83333C6.35583 5.83333 5.8335 6.35567 5.8335 7C5.8335 7.64433 6.35583 8.16667 7.00016 8.16667ZM8.16683 12.8333C8.16683 13.4777 7.64449 14 7.00016 14C6.35583 14 5.8335 13.4777 5.8335 12.8333C5.8335 12.189 6.35583 11.6667 7.00016 11.6667C7.64449 11.6667 8.16683 12.189 8.16683 12.8333Z" fill="#838589"/>
</svg>
